<svg xmlns="http://www.w3.org/2000/svg" width="20" height="20" viewBox="0 0 24 24" id="svg-2" fill="#fff"><path d="M12 3.984v4.219L9.891 6.094zM4.266 3L21 19.734 19.734 21l-2.063-2.063c-1.078.844-2.297 1.5-3.656 1.828v-2.063c.844-.234 1.594-.656 2.25-1.172l-4.266-4.266v6.75l-5.016-5.016H2.999v-6h4.734L2.999 4.264zm14.718 9c0-3.188-2.063-5.859-4.969-6.703V3.234c4.031.891 6.984 4.5 6.984 8.766a8.87 8.87 0 0 1-1.031 4.172l-1.5-1.547A6.901 6.901 0 0 0 18.984 12zM16.5 12c0 .234 0 .422-.047.609l-2.438-2.438V7.968c1.5.75 2.484 2.25 2.484 4.031z"></path></svg>